HIERARCHY
ROOT hip
{
  OFFSET 1.39892 82.1912 54.763
  CHANNELS 6 Xposition Yposition Zposition Zrotation Xrotation Yrotation
  JOINT abdomen
  {
    OFFSET 0 20.6881 -0.73152
    CHANNELS 3 Zrotation Xrotation Yrotation
    JOINT chest
    {
      OFFSET 0 11.7043 -0.48768
      CHANNELS 3 Zrotation Xrotation Yrotation
      JOINT neck
      {
        OFFSET 0 22.1894 -2.19456
        CHANNELS 3 Zrotation Xrotation Yrotation
        JOINT head
        {
          OFFSET -0.24384 7.07133 1.2192
          CHANNELS 3 Zrotation Xrotation Yrotation
          JOINT leftEye
          {
            OFFSET 4.14528 8.04674 8.04672
            CHANNELS 3 Zrotation Xrotation Yrotation
            End Site
            {
              OFFSET 1 0 0
            }
          }
          JOINT rightEye
          {
            OFFSET -3.6576 8.04674 8.04672
            CHANNELS 3 Zrotation Xrotation Yrotation
            End Site
            {
              OFFSET 1 0 0
            }
          }
        }
      }
      JOINT rCollar
      {
        OFFSET -2.68224 19.2634 -4.8768
        CHANNELS 3 Zrotation Xrotation Yrotation
        JOINT rShldr
        {
          OFFSET -8.77824 -1.95073 1.46304
          CHANNELS 3 Zrotation Xrotation Yrotation
          JOINT rForeArm
          {
            OFFSET -28.1742 -1.7115 0.48768
            CHANNELS 3 Zrotation Xrotation Yrotation
            JOINT rHand
            {
              OFFSET -22.5879 0.773209 7.07136
              CHANNELS 3 Zrotation Xrotation Yrotation
              JOINT rThumb1
              {
                OFFSET -1.2192 -0.487915 3.41376
                CHANNELS 3 Zrotation Xrotation Yrotation
                JOINT rThumb2
                {
                  OFFSET -3.37035 -0.52449 3.41376
                  CHANNELS 3 Zrotation Xrotation Yrotation
                  End Site
                  {
                    OFFSET -1.78271 -1.18214 1.43049
                  }
                }
              }
              JOINT rIndex1
              {
                OFFSET -7.75947 0.938293 5.60832
                CHANNELS 3 Zrotation Xrotation Yrotation
                JOINT rIndex2
                {
                  OFFSET -2.54057 -0.884171 1.56538
                  CHANNELS 3 Zrotation Xrotation Yrotation
                  End Site
                  {
                    OFFSET -1.62519 -0.234802 1.16502
                  }
                }
              }
              JOINT rMid1
              {
                OFFSET -8.24714 1.18213 3.41376
                CHANNELS 3 Zrotation Xrotation Yrotation
                JOINT rMid2
                {
                  OFFSET -3.10165 -0.590103 1.0647
                  CHANNELS 3 Zrotation Xrotation Yrotation
                  End Site
                  {
                    OFFSET -2.48547 -0.328903 0.83742
                  }
                }
              }
              JOINT rRing1
              {
                OFFSET -8.82822 0.546677 1.51678
                CHANNELS 3 Zrotation Xrotation Yrotation
                JOINT rRing2
                {
                  OFFSET -2.60934 -0.819778 -0.0198488
                  CHANNELS 3 Zrotation Xrotation Yrotation
                  End Site
                  {
                    OFFSET -2.33842 -0.294052 0.168128
                  }
                }
              }
              JOINT rPinky1
              {
                OFFSET -8.27202 -0.0477905 -0.4584
                CHANNELS 3 Zrotation Xrotation Yrotation
                JOINT rPinky2
                {
                  OFFSET -1.82734 -0.647385 -0.700984
                  CHANNELS 3 Zrotation Xrotation Yrotation
                  End Site
                  {
                    OFFSET -1.69225 -0.51767 -0.607171
                  }
                }
              }
            }
          }
        }
      }
      JOINT lCollar
      {
        OFFSET 2.68224 19.2634 -4.8768
        CHANNELS 3 Zrotation Xrotation Yrotation
        JOINT lShldr
        {
          OFFSET 8.77824 -1.95073 1.46304
          CHANNELS 3 Zrotation Xrotation Yrotation
          JOINT lForeArm
          {
            OFFSET 28.1742 -1.7115 0.48768
            CHANNELS 3 Zrotation Xrotation Yrotation
            JOINT lHand
            {
              OFFSET 22.5879 0.773209 7.07136
              CHANNELS 3 Zrotation Xrotation Yrotation
              JOINT lThumb1
              {
                OFFSET 1.2192 -0.487915 3.41376
                CHANNELS 3 Zrotation Xrotation Yrotation
                JOINT lThumb2
                {
                  OFFSET 3.37035 -0.52449 3.41376
                  CHANNELS 3 Zrotation Xrotation Yrotation
                  End Site
                  {
                    OFFSET 1.78271 -1.18214 1.43049
                  }
                }
              }
              JOINT lIndex1
              {
                OFFSET 7.75947 0.938293 5.60832
                CHANNELS 3 Zrotation Xrotation Yrotation
                JOINT lIndex2
                {
                  OFFSET 2.54057 -0.884171 1.56538
                  CHANNELS 3 Zrotation Xrotation Yrotation
                  End Site
                  {
                    OFFSET 1.62519 -0.234802 1.16502
                  }
                }
              }
              JOINT lMid1
              {
                OFFSET 8.24714 1.18213 3.41376
                CHANNELS 3 Zrotation Xrotation Yrotation
                JOINT lMid2
                {
                  OFFSET 3.10165 -0.590103 1.0647
                  CHANNELS 3 Zrotation Xrotation Yrotation
                  End Site
                  {
                    OFFSET 2.48547 -0.328903 0.83742
                  }
                }
              }
              JOINT lRing1
              {
                OFFSET 8.82822 0.546677 1.51678
                CHANNELS 3 Zrotation Xrotation Yrotation
                JOINT lRing2
                {
                  OFFSET 2.60934 -0.819778 -0.0198488
                  CHANNELS 3 Zrotation Xrotation Yrotation
                  End Site
                  {
                    OFFSET 2.33842 -0.294052 0.168128
                  }
                }
              }
              JOINT lPinky1
              {
                OFFSET 8.27202 -0.0477905 -0.4584
                CHANNELS 3 Zrotation Xrotation Yrotation
                JOINT lPinky2
                {
                  OFFSET 1.82734 -0.647385 -0.700984
                  CHANNELS 3 Zrotation Xrotation Yrotation
                  End Site
                  {
                    OFFSET 1.69225 -0.51767 -0.607171
                  }
                }
              }
            }
          }
        }
      }
    }
  }
  JOINT rButtock
  {
    OFFSET -8.77824 4.35084 1.2192
    CHANNELS 3 Zrotation Xrotation Yrotation
    JOINT rThigh
    {
      OFFSET 0 -1.70687 -2.19456
      CHANNELS 3 Zrotation Xrotation Yrotation
      JOINT rShin
      {
        OFFSET 0 -36.8199 0.73152
        CHANNELS 3 Zrotation Xrotation Yrotation
        JOINT rFoot
        {
          OFFSET 0.73152 -45.1104 -5.12064
          CHANNELS 3 Zrotation Xrotation Yrotation
          End Site
          {
            OFFSET -1.1221 -3.69964 12.103
          }
        }
      }
    }
  }
  JOINT lButtock
  {
    OFFSET 8.77824 4.35084 1.2192
    CHANNELS 3 Zrotation Xrotation Yrotation
    JOINT lThigh
    {
      OFFSET 0 -1.70687 -2.19456
      CHANNELS 3 Zrotation Xrotation Yrotation
      JOINT lShin
      {
        OFFSET 0 -36.8199 0.73152
        CHANNELS 3 Zrotation Xrotation Yrotation
        JOINT lFoot
        {
          OFFSET -0.73152 -45.1104 -5.12064
          CHANNELS 3 Zrotation Xrotation Yrotation
          End Site
          {
            OFFSET 1.1221 -3.69964 12.103
          }
        }
      }
    }
  }
}
MOTION
Frames:	4
Frame Time:	0.00833333
1.25346 82.5836 51.9691 -5.43895 8.02721 -7.70409 3.96599 -6.85273 3.0436 -3.71991 -8.9589 0.283363 1.06539 1.67829 0.359542 16.5519 14.5479 -1.74148 -0 0 0 -0 0 0 -2.51655e-014 -6.68875e-014 -9.31493e-015 -34.1506 29.4727 93.0869 -24.1618 -49.0317 102.732 -2.8375 -42.2546 -7.33525 -3.73243e-010 1.50367e-010 -3.03586e-010 -6.32928e-010 2.51656e-010 -5.37311e-010 -3.73228e-010 1.50366e-010 -3.03609e-010 7.73091 5.47488 0.417314 -3.73241e-010 1.50362e-010 -3.03587e-010 2.90554 0.965183 0.102902 -3.73227e-010 1.50363e-010 -3.03595e-010 10.2786 0.731801 0.0259123 -3.73251e-010 1.50362e-010 -3.03574e-010 2.22167 -0.733487 -0.20892 -2.51286e-014 -6.68942e-014 -9.49508e-015 27.5619 44.6872 -72.6324 28.3842 -33.9805 -73.664 13.0008 -67.1494 19.4814 -7.28439e-010 3.12417e-010 -3.54791e-011 -1.25005e-009 5.01004e-010 -1.01163e-010 -7.28443e-010 3.12414e-010 -3.54715e-011 -7.73091 5.47488 -0.417314 -7.28436e-010 3.12408e-010 -3.54856e-011 -2.90554 0.965183 -0.102902 -7.28448e-010 3.12415e-010 -3.54809e-011 -10.2786 0.731801 -0.0259123 -7.28434e-010 3.12414e-010 -3.54979e-011 -2.22167 -0.733487 0.20892 -2.03217e-016 0 -3.88251e-019 4.82114 -6.85646 24.5472 0.0275048 -0.679546 0.287691 -3.28822 -2.89849 -18.9497 2.03217e-016 0 3.88251e-019 1.98588 -6.93089 -37.7379 0.0205082 12.841 -0.0441655 15.6468 -15.74 52.9464 
1.2628 82.5884 52.0044 -5.84058 8.01408 -6.91231 4.06491 -6.90164 2.72372 -3.6074 -8.83927 0.202828 0.623705 1.62159 0.229467 17.0311 14.1909 -1.89328 -0 0 0 -0 0 0 -1.91412e-013 -1.59312e-013 6.66103e-014 -34.7764 31.6867 90.6531 -24.0119 -49.2597 103.219 -2.76759 -41.8458 -7.23052 5.01067e-010 1.24637e-010 -1.75066e-010 8.70758e-010 2.11053e-010 -2.83474e-010 5.01086e-010 1.24638e-010 -1.75094e-010 7.73091 5.47488 0.417314 5.01068e-010 1.24635e-010 -1.75069e-010 2.90554 0.965183 0.102902 5.01092e-010 1.24637e-010 -1.75081e-010 10.2786 0.731801 0.0259123 5.0106e-010 1.24632e-010 -1.75057e-010 2.22167 -0.733487 -0.20892 -1.91384e-013 -1.59315e-013 6.64147e-014 27.5065 44.3823 -72.7428 28.3767 -33.8613 -73.4708 12.7511 -66.8711 19.2101 -7.73968e-010 -2.96709e-010 -3.94583e-010 -1.31224e-009 -4.93714e-010 -7.16037e-010 -7.73969e-010 -2.9671e-010 -3.94574e-010 -7.73091 5.47488 -0.417314 -7.73962e-010 -2.9672e-010 -3.94591e-010 -2.90554 0.965183 -0.102902 -7.73976e-010 -2.96709e-010 -3.94583e-010 -10.2786 0.731801 -0.0259123 -7.73958e-010 -2.96715e-010 -3.94606e-010 -2.22167 -0.733487 0.20892 -2.03217e-016 0 -3.88251e-019 5.15253 -6.65932 24.3261 0.0284433 -0.699492 0.284437 -3.41844 -3.08843 -19.3884 2.03217e-016 0 3.88251e-019 2.28683 -6.80198 -38.3161 0.0162613 12.6713 -0.0448101 15.2709 -15.4661 52.8206 
1.26817 82.5918 52.0237 -6.11292 7.98264 -6.3324 4.13353 -6.91135 2.42221 -3.50668 -8.75757 0.126169 0.411983 1.56839 0.194273 17.1273 13.9321 -1.88284 -0 0 0 -0 0 0 -2.87762e-013 -1.92423e-013 9.06955e-014 -34.6625 33.1845 88.1928 -24.197 -49.1393 102.656 -2.74937 -41.7391 -7.20326 9.04514e-010 7.14321e-011 -1.51267e-010 1.56592e-009 1.24315e-010 -2.27503e-010 9.04534e-010 7.14353e-011 -1.51296e-010 7.73091 5.47488 0.417314 9.04515e-010 7.14327e-011 -1.5127e-010 2.90554 0.965183 0.102902 9.04544e-010 7.14361e-011 -1.51285e-010 10.2786 0.731801 0.0259123 9.04508e-010 7.14293e-011 -1.51261e-010 2.22167 -0.733487 -0.20892 -2.87739e-013 -1.92424e-013 9.04967e-014 27.2615 44.322 -72.5979 28.3724 -33.7991 -73.3713 12.678 -66.7884 19.1306 -8.79865e-010 -4.84421e-010 -5.41572e-010 -1.48701e-009 -8.05059e-010 -9.72432e-010 -8.79865e-010 -4.8442e-010 -5.41563e-010 -7.73091 5.47488 -0.417314 -8.79858e-010 -4.84433e-010 -5.41582e-010 -2.90554 0.965183 -0.102902 -8.79872e-010 -4.84421e-010 -5.41571e-010 -10.2786 0.731801 -0.0259123 -8.79853e-010 -4.84428e-010 -5.41598e-010 -2.22167 -0.733487 0.20892 -2.03217e-016 0 -3.88251e-019 5.36284 -6.50608 24.1662 0.0293328 -0.708863 0.281951 -3.51503 -3.21461 -19.7215 2.03217e-016 0 3.88251e-019 2.48412 -6.71097 -38.7143 0.0134464 12.5576 -0.0461354 14.981 -15.2527 52.7214 
1.30654 82.5883 52.0069 -6.23281 7.92429 -5.94009 4.16582 -6.84887 2.08201 -3.39604 -8.73334 0.0390164 0.512184 1.50024 0.303357 16.6388 13.7812 -1.61041 -0 0 0 -0 0 0 -2.80282e-013 -1.30277e-013 2.10665e-014 -33.7494 33.9818 85.7952 -24.8059 -48.4471 100.683 -2.83257 -42.2308 -7.32853 4.97654e-010 -5.36309e-011 -3.49549e-010 8.7098e-010 -8.24384e-011 -5.83825e-010 4.97672e-010 -5.36271e-011 -3.49571e-010 7.73091 5.47488 0.417314 4.97654e-010 -5.36285e-011 -3.4955e-010 2.90554 0.965183 0.102902 4.97683e-010 -5.36251e-011 -3.49563e-010 10.2786 0.731801 0.0259123 4.97651e-010 -5.36316e-011 -3.49542e-010 2.22167 -0.733487 -0.20892 -2.80256e-013 -1.3028e-013 2.08879e-014 26.6367 44.6053 -72.0118 28.3745 -33.8307 -73.4226 12.9087 -67.0487 19.3815 -1.14491e-009 7.30856e-011 -3.30478e-010 -1.95003e-009 9.13944e-011 -6.26721e-010 -1.14491e-009 7.3089e-011 -3.30465e-010 -7.73091 5.47488 -0.417314 -1.1449e-009 7.30747e-011 -3.30486e-010 -2.90554 0.965183 -0.102902 -1.14492e-009 7.30845e-011 -3.30477e-010 -10.2786 0.731801 -0.0259123 -1.1449e-009 7.30784e-011 -3.305e-010 -2.22167 -0.733487 0.20892 -2.03217e-016 0 -3.88251e-019 5.41614 -6.40413 24.0802 0.0303099 -0.703376 0.279454 -3.57993 -3.26292 -19.9955 2.03217e-016 0 3.88251e-019 2.55666 -6.691 -38.9015 0.0124399 12.5124 -0.0504079 14.7235 -15.0634 52.6091 
